# xmcd
#
# Track frame offsets:
#	150
#	11704
#	17656
#	30188
#	38236
#	44272
#	56085
#	64361
#	80029
#	90061
#	107725
#	114937
#	131162
#	149551
#	169923
# Disc length: 2407 seconds
# Revision: 1
# Processed by: cddbd v1.5.2PL0 Copyright (c) Steve Scherf et al.
#
# Submitted via: libkcddb 0.31
#
DISCID=c509650f
DTITLE=Haunted George - Pile O' Meat
DYEAR=2007
DGENRE=Unknown
TTITLE0=Song For World Peace
TTITLE1=Bone-Cat
TTITLE2=My Penance
TTITLE3=Pile O' Meat
TTITLE4=The Hangman
TTITLE5=Invisible
TTITLE6=Buried Alive
TTITLE7=Son Of Satan
TTITLE8=Sunstroke
TTITLE9=Torture
TTITLE10=Broken Hearted Gypsy
TTITLE11=Moaning Behind The Door
TTITLE12=Pit Of Death
TTITLE13=Swamp Witch
TTITLE14=Moody River
EXTD=
EXTT0=
EXTT1=
EXTT2=
EXTT3=
EXTT4=
EXTT5=
EXTT6=
EXTT7=
EXTT8=
EXTT9=
EXTT10=
EXTT11=
EXTT12=
EXTT13=
EXTT14=
PLAYORDER=
